<svg width="24" height="24" viewBox="0 0 24 24" fill="none" xmlns="http://www.w3.org/2000/svg">
<path opacity="0.4" d="M4.17038 15.3001L8.70038 19.8301C9.5964 20.7235 10.8101 21.2251 12.0754 21.2251C13.3407 21.2251 14.5544 20.7235 15.4504 19.8301L19.8404 15.4401C20.7338 14.544 21.2354 13.3304 21.2354 12.0651C21.2354 10.7998 20.7338 9.58608 19.8404 8.69007L15.3004 4.17007C14.831 3.69937 14.268 3.33244 13.6479 3.093C13.0278 2.85357 12.3643 2.74696 11.7004 2.78007L6.70038 3.02007C4.70038 3.11007 3.11038 4.70007 3.01038 6.69007L2.77038 11.6901C2.71038 13.0401 3.22038 14.3501 4.17038 15.3001Z" fill="#CFB009"/>
<path d="M9.50109 12.3811C10.2649 12.3811 10.9975 12.0777 11.5376 11.5376C12.0777 10.9975 12.3811 10.2649 12.3811 9.50109C12.3811 8.73727 12.0777 8.00473 11.5376 7.46463C10.9975 6.92452 10.2649 6.62109 9.50109 6.62109C8.73727 6.62109 8.00473 6.92452 7.46463 7.46463C6.92452 8.00473 6.62109 8.73727 6.62109 9.50109C6.62109 10.2649 6.92452 10.9975 7.46463 11.5376C8.00473 12.0777 8.73727 12.3811 9.50109 12.3811Z" fill="#CFB009"/>
</svg>
