<svg width="63" height="27" viewBox="0 0 63 27" fill="none" xmlns="http://www.w3.org/2000/svg">
<path fill-rule="evenodd" clip-rule="evenodd" d="M8.49176 5.32398C9.66483 5.42293 10.8379 4.73026 11.5711 3.85205C12.292 2.9491 12.7686 1.73692 12.6464 0.5C11.6077 0.549477 10.3247 1.19267 9.59151 2.09562C8.91944 2.87488 8.34513 4.13654 8.49176 5.32398ZM22.4466 21.2554V1.97187H29.5949C33.2852 1.97187 35.8635 4.54466 35.8635 8.30489C35.8635 12.0651 33.2363 14.6626 29.4972 14.6626H25.4037V21.2554H22.4466ZM12.6349 5.55891C11.6015 5.4987 10.6585 5.87352 9.89681 6.17627C9.40666 6.37109 8.99159 6.53608 8.67581 6.53608C8.32145 6.53608 7.88924 6.36227 7.40397 6.16713C6.76812 5.91143 6.04115 5.6191 5.27881 5.63313C3.53143 5.65786 1.90625 6.65977 1.01423 8.25539C-0.818681 11.4466 0.537675 16.1717 2.30949 18.7692C3.17707 20.0556 4.21572 21.4657 5.5843 21.4162C6.18639 21.3932 6.6195 21.2072 7.06773 21.0146C7.58376 20.793 8.11983 20.5627 8.95686 20.5627C9.76487 20.5627 10.2775 20.787 10.7696 21.0023C11.2375 21.2069 11.6868 21.4035 12.3539 21.3915C13.7713 21.3667 14.6633 20.1051 15.5309 18.8187C16.4672 17.438 16.8786 16.0906 16.941 15.8861L16.9484 15.8624C16.9469 15.8609 16.9353 15.8556 16.9149 15.8461C16.6019 15.7011 14.2097 14.5925 14.1868 11.6198C14.1637 9.12467 16.0842 7.86048 16.3865 7.66147C16.4049 7.64936 16.4173 7.64119 16.4229 7.63693C15.201 5.80629 13.2948 5.60839 12.6349 5.55891ZM41.2647 21.404C43.122 21.404 44.845 20.4515 45.627 18.9425H45.6881V21.2555H48.4253V11.6571C48.4253 8.874 46.2258 7.08047 42.841 7.08047C39.7006 7.08047 37.3789 8.89874 37.2934 11.3973H39.9572C40.1772 10.2099 41.2647 9.43061 42.7555 9.43061C44.5639 9.43061 45.5781 10.2841 45.5781 11.855V12.9187L41.8879 13.1414C38.4542 13.3516 36.5969 14.7741 36.5969 17.2479C36.5969 19.7465 38.5153 21.404 41.2647 21.404ZM42.0591 19.1156C40.4828 19.1156 39.4808 18.3487 39.4808 17.1737C39.4808 15.9615 40.4462 15.2564 42.2913 15.1451L45.5783 14.9348V16.0233C45.5783 17.8292 44.0631 19.1156 42.0591 19.1156ZM57.5045 22.01C56.3192 25.3868 54.9629 26.5 52.0791 26.5C51.8591 26.5 51.126 26.4753 50.9549 26.4258V24.1127C51.1382 24.1375 51.5903 24.1622 51.8225 24.1622C53.13 24.1622 53.8631 23.6056 54.3152 22.1584L54.5841 21.3049L49.5741 7.26593H52.6656L56.1482 18.6579H56.2092L59.6918 7.26593H62.6978L57.5045 22.01ZM25.4042 4.49517H28.8134C31.3795 4.49517 32.8458 5.88052 32.8458 8.31725C32.8458 10.754 31.3795 12.1517 28.8012 12.1517H25.4042V4.49517Z" fill="white"/>
</svg>
