<svg width="34" height="33" viewBox="0 0 34 33" fill="none" xmlns="http://www.w3.org/2000/svg">
<path d="M32.8089 20.4916C30.6048 29.3308 21.6511 34.7103 12.8098 32.506C3.97204 30.3022 -1.40805 21.349 0.796993 12.5103C2.99998 3.66997 11.9537 -1.71 20.7925 0.493755C29.6333 2.69751 35.0129 11.6518 32.8089 20.4916Z" fill="#F7931A"/>
<path fill-rule="evenodd" clip-rule="evenodd" d="M24.3221 14.3444C24.6654 12.0327 22.9181 10.79 20.5288 9.96102L21.3039 6.82957L19.4116 6.35453L18.657 9.40346C18.1595 9.27859 17.6486 9.16079 17.1409 9.04406L17.9008 5.97504L16.0096 5.5L15.234 8.63037C14.8222 8.53591 14.418 8.44253 14.0256 8.34426L14.0278 8.33449L11.4181 7.67812L10.9147 9.714C10.9147 9.714 12.3187 10.0381 12.2891 10.0582C13.0555 10.2509 13.194 10.7618 13.1708 11.1668L12.288 14.7342C12.3408 14.7478 12.4093 14.7673 12.4847 14.7977L12.4206 14.7816L12.4206 14.7816C12.3767 14.7705 12.3312 14.759 12.2848 14.7478L11.0473 19.7452C10.9535 19.9797 10.7158 20.3315 10.1801 20.198C10.199 20.2257 8.80466 19.8521 8.80466 19.8521L7.86523 22.0341L10.3278 22.6524C10.6028 22.7219 10.8745 22.7932 11.1434 22.8639L11.1435 22.8639C11.3225 22.9109 11.5002 22.9576 11.6768 23.0031L10.8937 26.1704L12.7839 26.6455L13.5594 23.5118C14.0758 23.653 14.577 23.7833 15.0675 23.906L14.2946 27.025L16.1869 27.5L16.97 24.3387C20.1968 24.9538 22.6233 24.7057 23.6446 21.7659C24.4676 19.3988 23.6037 18.0334 21.9059 17.1431C23.1423 16.8559 24.0736 16.0366 24.3221 14.3444ZM19.9985 20.4515C19.462 22.6232 16.0874 21.7253 14.5433 21.3145L14.5433 21.3145C14.4044 21.2776 14.2803 21.2446 14.1744 21.2181L15.2135 17.022C15.3424 17.0544 15.5 17.09 15.6784 17.1303L15.6785 17.1304C17.2754 17.4913 20.5483 18.2311 19.9985 20.4515ZM15.9993 15.1831C17.2867 15.5291 20.0947 16.284 20.5838 14.3102C21.0833 12.2913 18.3541 11.6827 17.0212 11.3855C16.8713 11.3521 16.739 11.3226 16.631 11.2955L15.6889 15.1012C15.7779 15.1236 15.8823 15.1516 15.9993 15.1831Z" fill="white"/>
</svg>
