<svg width="24" height="24" viewBox="0 0 24 24" fill="none" xmlns="http://www.w3.org/2000/svg">
<path opacity="0.4" d="M19 9C19 10.45 18.57 11.78 17.83 12.89C17.2878 13.6987 16.5825 14.3852 15.7593 14.9053C14.9361 15.4254 14.0133 15.7676 13.05 15.91C12.71 15.97 12.36 16 12 16C11.64 16 11.29 15.97 10.95 15.91C9.98681 15.7676 9.06399 15.4254 8.24082 14.9053C7.41764 14.3852 6.71229 13.6987 6.17005 12.89C5.40235 11.7383 4.99504 10.3841 5.00005 9C5.00005 5.13 8.13005 2 12 2C15.87 2 19 5.13 19 9Z" fill="#CFB009"/>
<path d="M21.2497 18.468L19.5997 18.858C19.2297 18.948 18.9397 19.228 18.8597 19.598L18.5097 21.068C18.4667 21.2484 18.3745 21.4134 18.2432 21.5444C18.1119 21.6754 17.9467 21.7673 17.7662 21.8099C17.5856 21.8524 17.3968 21.8439 17.2208 21.7853C17.0449 21.7267 16.8887 21.6203 16.7697 21.478L11.9997 15.998L7.22967 21.488C7.11069 21.6303 6.95448 21.7367 6.7785 21.7953C6.60252 21.8539 6.4137 21.8624 6.23316 21.8199C6.05263 21.7773 5.88748 21.6854 5.75618 21.5544C5.62488 21.4234 5.5326 21.2584 5.48967 21.078L5.13967 19.608C5.09713 19.4281 5.00538 19.2637 4.87469 19.133C4.744 19.0023 4.57953 18.9105 4.39967 18.868L2.74967 18.478C2.5768 18.4366 2.41804 18.3499 2.28967 18.227C2.16129 18.104 2.0679 17.9491 2.01906 17.7782C1.97022 17.6072 1.96769 17.4264 2.01173 17.2542C2.05576 17.0819 2.14478 16.9245 2.26967 16.798L6.16967 12.898C6.71197 13.7067 7.41732 14.3931 8.24049 14.9132C9.06366 15.4333 9.98646 15.7755 10.9497 15.918C11.2897 15.978 11.6397 16.008 11.9997 16.008C12.3597 16.008 12.7097 15.978 13.0497 15.918C15.0397 15.628 16.7497 14.498 17.8297 12.898L21.7297 16.798C22.2797 17.338 22.0097 18.288 21.2497 18.468ZM12.5797 5.98L13.1697 7.16C13.2497 7.32 13.4597 7.48 13.6497 7.51L14.7197 7.69C15.3997 7.8 15.5597 8.3 15.0697 8.79L14.2397 9.62C14.0997 9.76 14.0197 10.03 14.0697 10.23L14.3097 11.26C14.4997 12.07 14.0697 12.39 13.3497 11.96L12.3497 11.37C12.2481 11.3158 12.1348 11.2875 12.0197 11.2875C11.9046 11.2875 11.7912 11.3158 11.6897 11.37L10.6897 11.96C9.96967 12.38 9.53967 12.07 9.72967 11.26L9.96967 10.23C10.0097 10.04 9.93967 9.76 9.79967 9.62L8.96967 8.79C8.47967 8.3 8.63967 7.81 9.31967 7.69L10.3897 7.51C10.5697 7.48 10.7797 7.32 10.8597 7.16L11.4497 5.98C11.7397 5.34 12.2597 5.34 12.5797 5.98Z" fill="#CFB009"/>
</svg>
