<svg width="24" height="24" viewBox="0 0 24 24" fill="none" xmlns="http://www.w3.org/2000/svg">
<circle cx="12" cy="12" r="12" fill="#F7F7F7"/>
<path d="M19.5002 12.1801C19.5002 11.6534 19.454 11.1534 19.3748 10.6667H11.9185V13.6734H16.1877C15.9964 14.6601 15.4355 15.4934 14.6041 16.0601V18.0601H17.1511C18.6424 16.6667 19.5002 14.6134 19.5002 12.1801Z" fill="#4285F4"/>
<path d="M11.9181 19.9999C14.0561 19.9999 15.8443 19.2799 17.1508 18.0599L14.6037 16.0599C13.8911 16.5399 12.9871 16.8333 11.9181 16.8333C9.85278 16.8333 8.10416 15.4266 7.4773 13.5266H4.85107V15.5866C6.15099 18.1999 8.8234 19.9999 11.9181 19.9999Z" fill="#34A853"/>
<path d="M7.47744 13.5267C7.31247 13.0467 7.22669 12.5333 7.22669 12C7.22669 11.4667 7.31907 10.9533 7.47744 10.4733V8.41333H4.85121C4.31013 9.49333 4 10.7067 4 12C4 13.2933 4.31013 14.5067 4.85121 15.5867L7.47744 13.5267Z" fill="#FBBC05"/>
<path d="M11.9181 7.16667C13.0861 7.16667 14.1286 7.57333 14.9535 8.36667L17.2102 6.08667C15.8443 4.79333 14.0561 4 11.9181 4C8.8234 4 6.15099 5.8 4.85107 8.41333L7.4773 10.4733C8.10416 8.57333 9.85278 7.16667 11.9181 7.16667Z" fill="#EA4335"/>
</svg>
