<svg width="64" height="27" viewBox="0 0 64 27" fill="none" xmlns="http://www.w3.org/2000/svg">
<path fill-rule="evenodd" clip-rule="evenodd" d="M29.1208 20.8374V13.2073H33.0589C34.6726 13.2073 36.0346 12.6666 37.1449 11.6002L37.4114 11.3298C39.4397 9.12188 39.3064 5.68232 37.1449 3.63961C36.0642 2.55818 34.5837 1.9724 33.0589 2.00244H26.7373V20.8374H29.1208ZM29.1212 10.8943V4.31554H33.1191C33.9779 4.31554 34.7923 4.64597 35.3993 5.24677C36.6875 6.50844 36.7172 8.61123 35.4734 9.91796C34.8663 10.5638 34.0075 10.9243 33.1191 10.8943H29.1212ZM48.5294 8.9568C47.5079 8.01054 46.1163 7.52991 44.3545 7.52991C42.0894 7.52991 40.3869 8.37102 39.2617 10.0382L41.364 11.375C42.1338 10.2335 43.185 9.66273 44.5174 9.66273C45.3612 9.66273 46.1755 9.97815 46.8121 10.5489C47.4339 11.0896 47.7892 11.8707 47.7892 12.6968V13.2525C46.8713 12.7418 45.7166 12.4715 44.2953 12.4715C42.6372 12.4715 41.3048 12.862 40.3129 13.658C39.321 14.4541 38.8176 15.5055 38.8176 16.8423C38.788 18.0589 39.3062 19.2154 40.224 19.9964C41.1567 20.8375 42.3411 21.2581 43.7327 21.2581C45.376 21.2581 46.6789 20.5221 47.6708 19.0502H47.7744V20.8375H50.0543V12.892C50.0543 11.2248 49.5509 9.90305 48.5294 8.9568ZM42.06 18.4644C41.5714 18.104 41.2753 17.5182 41.2753 16.8873C41.2753 16.1814 41.601 15.5956 42.2377 15.13C42.8892 14.6644 43.7036 14.4241 44.6661 14.4241C45.9987 14.4091 47.0352 14.7095 47.7755 15.3103C47.7755 16.3316 47.3757 17.2178 46.591 17.9688C45.8802 18.6897 44.9178 19.0953 43.9109 19.0953C43.2446 19.1103 42.5931 18.885 42.06 18.4644ZM55.1765 26.5L63.1414 7.95044H60.5506L56.8643 17.2027H56.8198L53.0447 7.95044H50.4539L55.6799 20.0114L52.719 26.5H55.1765Z" fill="white"/>
<path d="M20.8921 11.5552C20.8921 10.8192 20.8329 10.0833 20.7144 9.3623H10.6621V13.5228H16.4211C16.1842 14.8596 15.4144 16.0612 14.2892 16.8122V19.5158H17.7239C19.7373 17.6383 20.8921 14.8596 20.8921 11.5552Z" fill="#4285F4"/>
<path d="M10.6634 22.1293C13.5355 22.1293 15.9634 21.168 17.7252 19.5158L14.2905 16.8122C13.3282 17.4731 12.0994 17.8486 10.6634 17.8486C7.88014 17.8486 5.52621 15.9411 4.68234 13.3877H1.14404V16.1814C2.9502 19.8312 6.63655 22.1293 10.6634 22.1293Z" fill="#34A853"/>
<path d="M4.6827 13.3878C4.23849 12.051 4.23849 10.5941 4.6827 9.24231V6.46362H1.14384C-0.381279 9.51267 -0.381279 13.1174 1.14384 16.1665L4.6827 13.3878Z" fill="#FBBC04"/>
<path d="M10.6634 4.78133C12.1883 4.75129 13.6539 5.33707 14.7495 6.40348L17.7992 3.30938C15.8598 1.47695 13.3134 0.470614 10.6634 0.500654C6.63655 0.500654 2.9502 2.81372 1.14404 6.46356L4.68234 9.25726C5.52621 6.68886 7.88014 4.78133 10.6634 4.78133Z" fill="#EA4335"/>
</svg>
