<svg width="24" height="24" viewBox="0 0 24 24" fill="none" xmlns="http://www.w3.org/2000/svg">
<path opacity="0.4" d="M3 9V8C3 5.24 5.016 3 7.5 3H16.5C18.984 3 21 5.24 21 8V16C21 18.76 18.984 21 16.5 21H7.5C5.016 21 3 18.76 3 16V9Z" fill="#CFB009"/>
<path d="M16.1385 15.439C15.7685 15.439 15.4485 15.159 15.3985 14.789C14.9685 11.409 12.5085 8.94904 9.12846 8.51904C8.9311 8.49335 8.75194 8.39057 8.63013 8.23317C8.50833 8.07576 8.4538 7.87654 8.47846 7.67904C8.52846 7.26904 8.90846 6.97904 9.31846 7.02904C13.3885 7.54904 16.3585 10.519 16.8885 14.599C16.9385 15.009 16.6485 15.389 16.2385 15.439H16.1385Z" fill="#CFB009"/>
<path d="M13.4393 16.298C13.0693 16.298 12.7493 16.018 12.6993 15.648C12.3893 13.268 10.6593 11.528 8.2693 11.218C8.07194 11.1923 7.89277 11.0895 7.77097 10.9321C7.64917 10.7747 7.59464 10.5755 7.6193 10.378C7.6693 9.96802 8.0493 9.67802 8.4593 9.72802C11.5393 10.128 13.7893 12.368 14.1893 15.458C14.2393 15.868 13.9493 16.248 13.5393 16.298H13.4393ZM10.3903 16.809C10.0203 16.809 9.7003 16.529 9.6503 16.159C9.5203 15.139 8.7803 14.399 7.7603 14.269C7.56294 14.2433 7.38377 14.1405 7.26197 13.9831C7.14017 13.8257 7.08564 13.6265 7.1103 13.429C7.1603 13.019 7.5403 12.729 7.9503 12.779C9.6403 12.999 10.9203 14.279 11.1403 15.969C11.1903 16.379 10.9003 16.759 10.4903 16.809H10.3903Z" fill="#CFB009"/>
</svg>
