<svg width="50" height="31" viewBox="0 0 50 31" fill="none" xmlns="http://www.w3.org/2000/svg">
<g clip-path="url(#clip0_237_1031)">
<path fill-rule="evenodd" clip-rule="evenodd" d="M18.458 27.2544H31.5725V3.70251H18.458V27.2544Z" fill="#FF5F00"/>
<path fill-rule="evenodd" clip-rule="evenodd" d="M19.2908 15.4784C19.2908 10.7003 21.5295 6.44476 25.0154 3.70246C22.4658 1.69661 19.2492 0.5 15.7529 0.5C7.47574 0.5 0.766113 7.20616 0.766113 15.4784C0.766113 23.7506 7.47574 30.4568 15.7529 30.4568C19.2492 30.4568 22.4658 29.2602 25.0154 27.2543C21.5295 24.5116 19.2908 20.2565 19.2908 15.4784Z" fill="#EB001B"/>
<path fill-rule="evenodd" clip-rule="evenodd" d="M48.797 24.7599V24.1786H48.645L48.4706 24.5785L48.2957 24.1786H48.1438V24.7599H48.2508V24.3213L48.4148 24.6995H48.526L48.69 24.3205V24.7599H48.797ZM47.8349 24.7599V24.2777H48.0297V24.1795H47.5343V24.2777H47.7287V24.7599H47.8349ZM49.265 15.4783C49.265 23.7505 42.5549 30.4567 34.2782 30.4567C30.7818 30.4567 27.5648 29.26 25.0156 27.2542C28.5016 24.5119 30.7402 20.2564 30.7402 15.4783C30.7402 10.7006 28.5016 6.44505 25.0156 3.70234C27.5648 1.69648 30.7818 0.499878 34.2782 0.499878C42.5549 0.499878 49.265 7.20604 49.265 15.4783Z" fill="#F79E1B"/>
</g>
<defs>
<clipPath id="clip0_237_1031">
<rect width="49" height="30" fill="white" transform="translate(0.766113 0.5)"/>
</clipPath>
</defs>
</svg>
