<svg width="88" height="25" viewBox="0 0 88 25" fill="none" xmlns="http://www.w3.org/2000/svg">
<path d="M20.6375 8.29315H14.8351C14.8351 7.35914 14.7231 6.73249 14.5002 6.41321C14.1548 5.94133 13.202 5.70485 11.6423 5.70485C10.1273 5.70485 9.12316 5.84068 8.63324 6.11288C8.14332 6.38616 7.8978 6.97979 7.8978 7.89379C7.8978 8.7212 8.11518 9.26667 8.55048 9.52751C8.8622 9.71312 9.27433 9.82189 9.78743 9.85436L10.9576 9.93553C13.4657 10.0984 15.032 10.2137 15.6566 10.2792C17.64 10.4751 19.0778 10.9924 19.9699 11.8306C20.6717 12.4849 21.0904 13.3399 21.2239 14.3951C21.3023 15.0266 21.3409 15.7415 21.3409 16.5353C21.3409 18.3655 21.1627 19.7054 20.8068 20.5544C20.1608 22.1129 18.7092 23.0973 16.451 23.5107C15.5048 23.6855 14.0577 23.7726 12.1107 23.7726C8.8611 23.7726 6.59686 23.5832 5.31798 23.2017C3.74891 22.7347 2.71389 21.7882 2.21348 20.3634C1.93432 19.5701 1.79639 18.2486 1.79639 16.399H7.59877C7.59877 16.6052 7.59933 16.7632 7.59933 16.8719C7.59933 17.859 7.88842 18.4932 8.46607 18.7762C8.86606 18.971 9.34881 19.0733 9.91653 19.0858H12.05C13.1385 19.0858 13.8332 19.0311 14.1327 18.9213C14.6662 18.7156 15.0166 18.3844 15.1838 17.9261C15.2726 17.6436 15.3167 17.2789 15.3167 16.8319C15.3167 15.8313 14.9443 15.2225 14.2006 15.0039C13.922 14.9179 12.6288 14.7972 10.3193 14.6451C8.46441 14.5152 7.17616 14.3902 6.45507 14.269C4.55551 13.9205 3.28933 13.2035 2.65761 12.1153C2.10204 11.191 1.82452 9.79213 1.82452 7.9203C1.82452 6.49547 1.97459 5.35257 2.27472 4.49323C2.57486 3.63335 3.05871 2.98073 3.72629 2.53428C4.70448 1.84865 5.95632 1.44658 7.4796 1.32644C8.74744 1.21767 10.1538 1.16248 11.7008 1.16248C14.136 1.16248 15.8717 1.29993 16.9062 1.57212C19.4314 2.23773 20.6937 4.10144 20.6937 7.16432C20.6937 7.41541 20.675 7.79097 20.6375 8.29315Z" fill="white"/>
<path d="M46.1533 23.7729V1.0426H55.2439H56.6707H57.7735C59.3674 1.0426 60.5834 1.16977 61.4193 1.42519C63.3304 2.01234 64.6126 3.2153 65.2697 5.03247C65.6084 5.98651 65.7784 7.42271 65.7784 9.34053C65.7784 11.6464 65.5902 13.3028 65.2178 14.312C64.4725 16.3067 62.9387 17.4561 60.622 17.7537C60.3495 17.7986 59.1903 17.8381 57.144 17.8706L56.109 17.9042H52.3905V23.7729H46.1533ZM52.3905 12.6312H56.2784C57.5115 12.5879 58.2613 12.4949 58.531 12.3493C58.8996 12.1507 59.1473 11.7524 59.2703 11.1555C59.3492 10.7583 59.3884 10.1674 59.3884 9.38274C59.3884 8.42112 59.3101 7.70844 59.1528 7.24305C58.9288 6.59097 58.3915 6.19431 57.5407 6.04982C57.3719 6.02818 56.9691 6.01627 56.3308 6.01627H52.3905V12.6312Z" fill="white"/>
<path d="M79.0918 19.8446H70.7526L69.6321 23.7728H63.1792L70.1424 1.04248H79.5508L86.5989 23.7728H80.2818L79.0918 19.8446ZM77.8532 15.4164L74.9307 5.56321L72.0949 15.4164H77.8532Z" fill="white"/>
<path d="M37.545 4.24029C40.1171 4.24029 42.4134 5.40267 43.9223 7.22308L45.2668 4.3956C43.1643 2.44639 40.3025 1.24451 37.1461 1.24451C32.2315 1.24451 28.0274 4.15587 26.3022 8.27724H23.6804L22.1323 11.5322H25.505C25.4796 11.8342 25.463 12.1361 25.463 12.4446C25.463 12.8174 25.4829 13.1865 25.5204 13.5507H23.8255L22.278 16.8068H26.3827C28.1571 20.8237 32.3087 23.6436 37.1461 23.6436C39.5842 23.6436 41.8462 22.9271 43.7193 21.7031V17.7127C42.2109 19.3972 40.0046 20.4617 37.545 20.4617C34.67 20.4617 32.141 19.0076 30.6685 16.8068H39.2631L40.8112 13.5507H29.4039C29.3449 13.1589 29.3134 12.7585 29.3134 12.3504C29.3134 12.0745 29.3278 11.8017 29.3554 11.5322H41.7706L43.3182 8.27724H30.4285C31.8541 5.86427 34.5067 4.24029 37.545 4.24029Z" fill="#FFBE00"/>
<path d="M37.5449 4.33781C39.9962 4.33781 42.2924 5.41253 43.845 7.28489L43.9454 7.40611L44.0132 7.26487L45.3572 4.43738L45.387 4.37299L45.3357 4.32428C43.1255 2.27551 40.2169 1.14722 37.146 1.14722C34.7477 1.14722 32.4405 1.83447 30.4725 3.13485C28.5509 4.40437 27.0767 6.17013 26.2105 8.24001L26.3021 8.17941H23.6803H23.6163L23.5898 8.23568L22.0423 11.4912L21.9761 11.6303H22.1322H25.5048L25.4055 11.5242C25.3774 11.8624 25.3636 12.1628 25.3636 12.4447C25.3636 12.81 25.3829 13.1861 25.421 13.5606L25.5203 13.4534H23.8254H23.7625L23.736 13.5097L22.1874 16.7652L22.1217 16.9043H22.2779H26.3826L26.291 16.8453C28.1415 21.0343 32.4024 23.7411 37.146 23.7411C39.5239 23.7411 41.8152 23.0652 43.7743 21.7849L43.8179 21.7562V21.7032V17.7128V17.4536L43.6441 17.6484C42.0988 19.3741 39.8759 20.3633 37.5449 20.3633C34.8029 20.3633 32.2634 19.0131 30.7511 16.7528L30.6683 16.9043H39.263H39.327L39.3534 16.8486L40.9016 13.5919L40.9678 13.4534H40.8111H29.4038L29.5026 13.5367C29.4435 13.1423 29.4132 12.744 29.4132 12.3506C29.4132 12.0827 29.427 11.811 29.4546 11.5421L29.3553 11.6303H41.7705H41.8345L41.861 11.574L43.4085 8.31848L43.4753 8.17941H43.3181H30.4283L30.5144 8.32606C31.9676 5.86601 34.6622 4.33781 37.5449 4.33781ZM30.4283 8.37476H43.3181L43.2276 8.23568L41.6806 11.4912L41.7705 11.4349H29.3553H29.2653L29.2554 11.5231C29.2278 11.798 29.214 12.0767 29.214 12.3506C29.214 12.7532 29.2449 13.1623 29.3051 13.5654L29.3183 13.6488H29.4038H40.8111L40.7211 13.5097L39.1736 16.7652L39.263 16.7089H30.6683H30.4835L30.585 16.8594C32.1337 19.1766 34.7361 20.5581 37.5449 20.5581C39.9327 20.5581 42.2108 19.5451 43.7942 17.7772L43.6193 17.7128V21.7032L43.6634 21.6225C41.7374 22.8807 39.4842 23.5458 37.146 23.5458C32.4813 23.5458 28.2927 20.885 26.4742 16.7674L26.4477 16.7089H26.3826H22.2779L22.3689 16.8486L23.9159 13.5919L23.8254 13.6488H25.5203H25.6301L25.6196 13.5411C25.5821 13.1731 25.5622 12.8035 25.5622 12.4447C25.5622 12.1687 25.576 11.8727 25.6042 11.5405L25.613 11.4349H25.5048H22.1322L22.2221 11.574L23.7703 8.31848L23.6803 8.37476H26.3021H26.3688L26.3937 8.31415C27.2461 6.27998 28.6949 4.54507 30.5839 3.29665C32.5182 2.019 34.788 1.34311 37.146 1.34311C40.1661 1.34311 43.0251 2.45192 45.1983 4.4666L45.1762 4.35405L43.8328 7.18207L44 7.16151C42.4083 5.24315 40.0563 4.14246 37.5449 4.14246C34.5905 4.14246 31.8314 5.70799 30.3417 8.22811L30.2551 8.37476H30.4283Z" fill="#FFBE00"/>
</svg>
