<svg width="24" height="24" viewBox="0 0 24 24" fill="none" xmlns="http://www.w3.org/2000/svg">
<path opacity="0.4" fill-rule="evenodd" clip-rule="evenodd" d="M3.07992 15.88C2.91992 15.91 2.74993 15.82 2.68993 15.67C2.23993 14.53 1.99993 13.3 1.99993 12.01C1.99409 9.88726 2.6707 7.81887 3.92993 6.10998C4.02993 5.96998 4.22992 5.92998 4.37992 6.01998C5.35992 6.56998 8.50993 8.71998 10.2699 13.47C10.3399 13.65 10.2499 13.85 10.0699 13.91C6.87992 15.11 4.17992 15.67 3.07992 15.88ZM10.1119 21.82C7.6931 21.3614 5.53228 20.0171 4.05192 18.05C3.89192 17.84 4.01192 17.54 4.26192 17.49C5.34192 17.28 7.67193 16.77 10.4419 15.79C10.6519 15.72 10.8819 15.86 10.9119 16.08C11.2119 18.57 10.7319 20.75 10.5119 21.57C10.4519 21.74 10.2819 21.85 10.1119 21.82Z" fill="#CFB009"/>
<path fill-rule="evenodd" clip-rule="evenodd" d="M12.1813 21.59C12.3613 20.57 12.7413 17.97 12.4513 15.31C12.4313 15.15 12.5213 15.01 12.6713 14.94C12.7613 14.9 12.8513 14.87 12.9413 14.83C13.3113 14.67 13.6913 14.5 14.0613 14.33C14.2413 14.24 14.4613 14.33 14.5413 14.51C15.7513 17.31 17.3113 18.87 18.0113 19.48C18.1813 19.63 18.1713 19.89 17.9913 20.03C16.4203 21.2102 14.5335 21.896 12.5713 22C12.3213 22.01 12.1413 21.81 12.1813 21.59Z" fill="#CFB009"/>
<path opacity="0.4" fill-rule="evenodd" clip-rule="evenodd" d="M19.21 18.44C18.58 17.92 17.08 16.46 15.98 13.69C15.9476 13.6099 15.9461 13.5206 15.9756 13.4393C16.0051 13.3581 16.0637 13.2906 16.14 13.25C17.9174 12.2587 19.6368 11.1669 21.29 9.98001C21.3393 9.945 21.3966 9.92303 21.4566 9.91615C21.5167 9.90928 21.5775 9.91771 21.6334 9.94067C21.6893 9.96363 21.7385 10.0004 21.7764 10.0475C21.8142 10.0946 21.8396 10.1505 21.85 10.21C21.95 10.79 22 11.39 22 12.01C22 14.43 21.14 16.66 19.7 18.39C19.58 18.54 19.36 18.56 19.21 18.44ZM15.16 11.02C14.21 7.23001 14.08 3.88001 14.06 2.66001C14.06 2.43001 14.28 2.26001 14.5 2.32001C17.3 3.04001 19.64 4.96001 20.93 7.49001C21.01 7.64001 20.96 7.83001 20.82 7.93001C20.1 8.45001 18.07 9.86001 15.68 11.24C15.48 11.35 15.22 11.25 15.16 11.02Z" fill="#CFB009"/>
<path fill-rule="evenodd" clip-rule="evenodd" d="M12.4002 12.92C12.2102 13.01 11.9802 12.9 11.9102 12.7C10.4802 8.27 6.93016 5.62 5.71016 4.82C5.51016 4.69 5.50016 4.41 5.68016 4.26C7.40016 2.85 9.37016 2 11.7702 2L11.9502 2C12.1502 2 12.3102 2.16 12.3002 2.36C12.2502 3.62 12.4202 7.73 13.6502 12C13.7002 12.16 13.6202 12.34 13.4702 12.41C13.1102 12.59 12.7602 12.76 12.4002 12.92Z" fill="#CFB009"/>
</svg>
