<svg width="34" height="33" viewBox="0 0 34 33" fill="none" xmlns="http://www.w3.org/2000/svg">
<circle cx="16.8027" cy="16.5" r="16.5" fill="#22A079"/>
<path fill-rule="evenodd" clip-rule="evenodd" d="M19.036 11.0564V13.7985L19.0389 13.8014C24.0418 14.0359 27.8027 15.0478 27.8027 16.2557C27.8027 17.4665 24.0418 18.4754 19.0389 18.7099V27.5H14.5812V18.7099C9.57241 18.4725 5.80273 17.4635 5.80273 16.2527C5.80273 15.0419 9.5695 14.0329 14.5812 13.7985V11.0564H8.41498V6.875H25.2022V11.0564H19.036ZM19.036 17.9561V17.9591V17.962C23.4529 17.7603 26.7503 16.9768 26.7503 16.039C26.7503 15.1013 23.4558 14.3178 19.036 14.116V17.1786C18.9077 17.1905 18.2196 17.2498 16.8436 17.2498C15.6978 17.2498 14.8669 17.1994 14.5782 17.1786V14.113C10.1526 14.3119 6.84647 15.0983 6.84647 16.0361C6.84647 16.9768 10.1497 17.7603 14.5782 17.9591V17.9561C14.864 17.971 15.6715 18.0036 16.8231 18.0036C18.2634 18.0036 18.9106 17.965 19.036 17.9561Z" fill="white"/>
</svg>
