<svg width="24" height="24" viewBox="0 0 24 24" fill="none" xmlns="http://www.w3.org/2000/svg">
<g clip-path="url(#clip0_237_1199)">
<path d="M-0.272461 3H48.8185V39.8182H-0.272461V3Z" fill="#00008B"/>
<path d="M2.60396 3L11.9619 9.94176L21.2815 3H24.273V5.37784L15.0684 12.2429L24.273 19.0696V21.4091H21.2048L12.0003 14.544L2.83407 21.4091H-0.272461V19.108L8.89373 12.2812L-0.272461 5.45455V3H2.60396Z" fill="white"/>
<path d="M15.9889 13.777L24.273 19.875V21.4091L13.8795 13.777H15.9889ZM8.93209 14.544L9.1622 15.8864L1.79856 21.4091H-0.272461L8.93209 14.544ZM24.273 3V3.11506L14.7233 10.3253L14.8 8.63778L22.3554 3H24.273ZM-0.272461 3L8.89373 9.75H6.5926L-0.272461 4.6108V3Z" fill="#FF0000"/>
<path d="M8.97044 3V21.4091H15.1068V3H8.97044ZM-0.272461 9.13636V15.2727H24.273V9.13636H-0.272461Z" fill="white"/>
<path d="M-0.272461 10.402V14.0838H24.273V10.402H-0.272461ZM10.1977 3V21.4091H13.8795V3H10.1977Z" fill="#FF0000"/>
<path d="M40.1501 33.4287L38.5776 33.6281L38.7464 35.2005L37.6112 34.096L36.4836 35.2082L36.637 33.6358L35.0646 33.4517L36.3916 32.5926L35.5555 31.2502L37.0589 31.7488L37.5882 30.2531L38.1328 31.7412L39.6285 31.2272L38.8078 32.5772L40.1424 33.4287H40.1501ZM39.8663 24.4389L40.0734 23.4417L39.3217 22.7514L40.3342 22.6363L40.7561 21.7082L41.1779 22.6363L42.1904 22.7514L41.4387 23.4417L41.6458 24.4389L40.7561 23.9326L39.8663 24.4389ZM31.8813 19.8366L30.3242 20.0054L30.4623 21.5625L29.3578 20.4502L28.2225 21.5318L28.4066 19.9747L26.8572 19.7676L28.1842 18.9392L27.3788 17.5968L28.8592 18.1184L29.4114 16.6534L29.9254 18.1338L31.4134 17.6505L30.5774 18.9775L31.889 19.8366H31.8813ZM47.5137 17.3207L45.9106 17.5278L46.087 19.1309L44.9288 18.0034L43.7782 19.1386L43.9393 17.5278L42.3362 17.3437L43.6938 16.4616L42.8424 15.0886L44.3765 15.6025L44.9134 14.0838L45.4657 15.6025L46.9921 15.0733L46.1484 16.4539L47.5137 17.3207ZM40.1424 10.9159L38.5546 11.0923L38.7004 12.6877L37.5728 11.5525L36.4146 12.6571L36.5987 11.0693L35.0109 10.8545L36.3686 10.0108L35.5478 8.63774L37.0589 9.167L37.6188 7.67126L38.1404 9.18234L39.6592 8.68376L38.8078 10.0338L40.1424 10.9159ZM17.6757 32.5849L14.1626 32.9991L14.5154 36.5198L11.9995 34.0346L9.46827 36.5045L9.84412 32.9838L6.33105 32.5389L9.31486 30.6366L7.47395 27.6144L10.8183 28.765L12.0302 25.436L13.2191 28.7727L16.5711 27.6451L14.7072 30.6519L17.6833 32.5772L17.6757 32.5849Z" fill="white"/>
</g>
<defs>
<clipPath id="clip0_237_1199">
<rect x="3" y="3" width="18" height="18" rx="5" fill="white"/>
</clipPath>
</defs>
</svg>
