<svg width="72" height="23" viewBox="0 0 72 23" fill="none" xmlns="http://www.w3.org/2000/svg">
<path d="M31.4937 22.668H25.7368L29.3376 0.403442H35.0942L31.4937 22.668Z" fill="#206AFF"/>
<path d="M52.361 0.947893C51.2255 0.4974 49.4245 0 47.1975 0C41.5123 0 37.5089 3.03162 37.4844 7.36592C37.4371 10.5638 40.3507 12.3399 42.5298 13.4062C44.7571 14.4957 45.5142 15.2069 45.5142 16.1781C45.4915 17.6696 43.7144 18.3572 42.057 18.3572C39.7585 18.3572 38.527 18.0027 36.6555 17.1729L35.8974 16.8171L35.0918 21.8151C36.442 22.4302 38.9296 22.9761 41.5123 23C47.5529 23 51.4855 20.0153 51.5321 15.3964C51.5551 12.8619 50.0166 10.9198 46.6998 9.33285C44.6863 8.31413 43.4531 7.62721 43.4531 6.58488C43.4768 5.6373 44.4961 4.66674 46.769 4.66674C48.6406 4.6192 50.0157 5.06907 51.0574 5.51924L51.5781 5.75567L52.361 0.947893Z" fill="#206AFF"/>
<path d="M60.0158 14.7805C60.4899 13.5014 62.3142 8.55103 62.3142 8.55103C62.2903 8.59857 62.7874 7.24835 63.0717 6.41946L63.474 8.33791C63.474 8.33791 64.5642 13.6673 64.8009 14.7805C63.9012 14.7805 61.1529 14.7805 60.0158 14.7805ZM67.122 0.403442H62.669C61.2958 0.403442 60.2525 0.805769 59.6601 2.25075L51.1089 22.6677H57.1495C57.1495 22.6677 58.1439 19.9198 58.3577 19.3279C59.0204 19.3279 64.8966 19.3279 65.7491 19.3279C65.9144 20.1096 66.436 22.6677 66.436 22.6677H71.7664L67.122 0.403442Z" fill="#206AFF"/>
<path d="M20.9282 0.403442L15.2903 15.5858L14.6742 12.5066C13.6318 8.95367 10.3629 5.09348 6.71484 3.17408L11.879 22.6444H17.9668L27.0157 0.403442H20.9282Z" fill="#206AFF"/>
<path d="M10.0548 0.403442H0.792511L0.697754 0.853305C7.92295 2.70092 12.7081 7.15454 14.674 12.5076L12.6605 2.27499C12.329 0.85299 11.3103 0.450349 10.0548 0.403442Z" fill="#FAA61A"/>
</svg>
